{
    "asset": {
        "premultipliedAlpha": true,
        "profile": {
            "api": "WebGL",
            "version": "1.0.2"
        },
        "generator": "COLLADA2GLTF",
        "version": "1.0"
    },
    "scenes": {
        "scene_0": {
            "nodes": [
                "node_0"
            ]
        }
    },
    "scene": "scene_0",
    "nodes": {
        "node_0": {
            "children": [
                "node_1"
            ],
            "matrix": [
                1.0,
                0.0,
                0.0,
                0.0,
                0.0,
                0.0,
                -1.0,
                0.0,
                0.0,
                1.0,
                0.0,
                0.0,
                0.0,
                0.0,
                0.0,
                1.0
            ],
            "name": "Z_UP"
        },
        "node_1": {
            "meshes": [
                "geometry0"
            ]
        }
    },
    "meshes": {
        "geometry0": {
            "primitives": [
                {
                    "attributes": {
                        "POSITION": "accessor_1",
                        "TEXCOORD_0": "accessor_2"
                    },
                    "indices": "accessor_0",
                    "mode": 4,
                    "material": "textureAtlas_2447475_2_eff"
                },
                {
                    "attributes": {
                        "POSITION": "accessor_4",
                        "TEXCOORD_0": "accessor_5"
                    },
                    "indices": "accessor_3",
                    "mode": 4,
                    "material": "material_1"
                },
                {
                    "attributes": {
                        "POSITION": "accessor_7",
                        "TEXCOORD_0": "accessor_8"
                    },
                    "indices": "accessor_6",
                    "mode": 4,
                    "material": "material_2"
                },
                {
                    "attributes": {
                        "POSITION": "accessor_10"
                    },
                    "indices": "accessor_9",
                    "mode": 4,
                    "material": "default_ai_0.2_sh_0.2_tr_0.0_dc_r_0.8_g_0.8_b_0.8_sc_r_1.0_g_1.0_b_1.0_ec_r_0.0_g_0.0_b_0_eff"
                }
            ],
            "name": "geometry0"
        }
    },
    "accessors": {
        "accessor_0": {
            "bufferView": "bufferView_0",
            "byteOffset": 0,
            "componentType": 5123,
            "count": 6,
            "max": [
                3
            ],
            "min": [
                0
            ],
            "type": "SCALAR"
        },
        "accessor_1": {
            "bufferView": "bufferView_1",
            "byteOffset": 0,
            "byteStride": 12,
            "componentType": 5126,
            "count": 4,
            "max": [
                -109.43041229248049,
                172.2630157470703,
                27.979999542236329
            ],
            "min": [
                -122.5788803100586,
                164.4921417236328,
                0.0
            ],
            "type": "VEC3"
        },
        "accessor_2": {
            "bufferView": "bufferView_2",
            "byteOffset": 0,
            "byteStride": 8,
            "componentType": 5126,
            "count": 4,
            "max": [
                0.7001620531082153,
                0.6299129724502564
            ],
            "min": [
                0.0012663280358538032,
                0.003029286861419678
            ],
            "type": "VEC2"
        },
        "accessor_3": {
            "bufferView": "bufferView_0",
            "byteOffset": 12,
            "componentType": 5123,
            "count": 462,
            "max": [
                201
            ],
            "min": [
                0
            ],
            "type": "SCALAR"
        },
        "accessor_4": {
            "bufferView": "bufferView_1",
            "byteOffset": 48,
            "byteStride": 12,
            "componentType": 5126,
            "count": 202,
            "max": [
                20.219406127929689,
                172.2630157470703,
                28.021728515625
            ],
            "min": [
                -156.82801818847657,
                -61.69252014160156,
                0.0
            ],
            "type": "VEC3"
        },
        "accessor_5": {
            "bufferView": "bufferView_2",
            "byteOffset": 32,
            "byteStride": 8,
            "componentType": 5126,
            "count": 202,
            "max": [
                0.9999895691871644,
                0.9987160563468932
            ],
            "min": [
                0.00009899999713525176,
                0.00013434886932373047
            ],
            "type": "VEC2"
        },
        "accessor_6": {
            "bufferView": "bufferView_0",
            "byteOffset": 936,
            "componentType": 5123,
            "count": 585,
            "max": [
                286
            ],
            "min": [
                0
            ],
            "type": "SCALAR"
        },
        "accessor_7": {
            "bufferView": "bufferView_1",
            "byteOffset": 2472,
            "byteStride": 12,
            "componentType": 5126,
            "count": 287,
            "max": [
                20.219406127929689,
                172.2630157470703,
                28.021728515625
            ],
            "min": [
                -156.82801818847657,
                -61.69252014160156,
                0.0
            ],
            "type": "VEC3"
        },
        "accessor_8": {
            "bufferView": "bufferView_2",
            "byteOffset": 1648,
            "byteStride": 8,
            "componentType": 5126,
            "count": 287,
            "max": [
                0.9999839663505554,
                0.9968961477279664
            ],
            "min": [
                0.00002170898369513452,
                0.00012636184692382813
            ],
            "type": "VEC2"
        },
        "accessor_9": {
            "bufferView": "bufferView_0",
            "byteOffset": 2106,
            "componentType": 5123,
            "count": 291,
            "max": [
                77
            ],
            "min": [
                0
            ],
            "type": "SCALAR"
        },
        "accessor_10": {
            "bufferView": "bufferView_1",
            "byteOffset": 5916,
            "byteStride": 12,
            "componentType": 5126,
            "count": 78,
            "max": [
                20.218807220458986,
                172.2621307373047,
                0.0
            ],
            "min": [
                -156.82801818847657,
                -61.69252014160156,
                0.0
            ],
            "type": "VEC3"
        }
    },
    "materials": {
        "textureAtlas_2447475_2_eff": {
            "values": {
                "diffuse": "texture_0",
                "emission": [
                    0.0,
                    0.0,
                    0.0,
                    1.0
                ],
                "transparency": 1.0
            },
            "technique": "technique_0",
            "name": "textureAtlas_2447475_2_eff"
        },
        "material_1": {
            "values": {
                "diffuse": "texture_1",
                "emission": [
                    0.0,
                    0.0,
                    0.0,
                    1.0
                ],
                "transparency": 1.0
            },
            "technique": "technique_0",
            "name": "textureAtlas_2447475_0_eff"
        },
        "material_2": {
            "values": {
                "diffuse": "texture_2",
                "emission": [
                    0.0,
                    0.0,
                    0.0,
                    1.0
                ],
                "transparency": 1.0
            },
            "technique": "technique_0",
            "name": "textureAtlas_2447475_1_eff"
        },
        "default_ai_0.2_sh_0.2_tr_0.0_dc_r_0.8_g_0.8_b_0.8_sc_r_1.0_g_1.0_b_1.0_ec_r_0.0_g_0.0_b_0_eff": {
            "values": {
                "diffuse": [
                    0.800000011920929,
                    0.800000011920929,
                    0.800000011920929,
                    1.0
                ],
                "emission": [
                    0.0,
                    0.0,
                    0.0,
                    1.0
                ],
                "transparency": 1.0
            },
            "technique": "technique_1",
            "name": "default_ai_0.2_sh_0.2_tr_0.0_dc_r_0.8_g_0.8_b_0.8_sc_r_1.0_g_1.0_b_1.0_ec_r_0.0_g_0.0_b_0_eff"
        }
    },
    "textures": {
        "texture_0": {
            "format": 6408,
            "internalFormat": 6408,
            "target": 3553,
            "type": 5121,
            "sampler": "sampler_0",
            "source": "textureAtlas_2447475_2_img"
        },
        "texture_1": {
            "format": 6408,
            "internalFormat": 6408,
            "target": 3553,
            "type": 5121,
            "sampler": "sampler_0",
            "source": "textureAtlas_2447475_0_img"
        },
        "texture_2": {
            "format": 6408,
            "internalFormat": 6408,
            "target": 3553,
            "type": 5121,
            "sampler": "sampler_0",
            "source": "textureAtlas_2447475_1_img"
        }
    },
    "images": {
        "textureAtlas_2447475_2_img": {
            "uri": "textureAtlas_2447475_2.jpeg"
        },
        "textureAtlas_2447475_0_img": {
            "uri": "textureAtlas_2447475_0.jpeg"
        },
        "textureAtlas_2447475_1_img": {
            "uri": "textureAtlas_2447475_1.jpeg"
        }
    },
    "samplers": {
        "sampler_0": {
            "magFilter": 9729,
            "minFilter": 9986,
            "wrapS": 10497,
            "wrapT": 10497
        }
    },
    "techniques": {
        "technique_0": {
            "attributes": {
                "a_normal": "normal",
                "a_position": "position",
                "a_texcoord0": "texcoord0"
            },
            "parameters": {
                "diffuse": {
                    "type": 35678
                },
                "emission": {
                    "type": 35666
                },
                "modelViewMatrix": {
                    "semantic": "MODELVIEW",
                    "type": 35676
                },
                "normal": {
                    "semantic": "NORMAL",
                    "type": 35665
                },
                "normalMatrix": {
                    "semantic": "MODELVIEWINVERSETRANSPOSE",
                    "type": 35675
                },
                "position": {
                    "semantic": "POSITION",
                    "type": 35665
                },
                "projectionMatrix": {
                    "semantic": "PROJECTION",
                    "type": 35676
                },
                "texcoord0": {
                    "semantic": "TEXCOORD_0",
                    "type": 35665
                },
                "transparency": {
                    "type": 5126
                }
            },
            "program": "program_0",
            "states": {
                "enable": [
                    2929
                ]
            },
            "uniforms": {
                "u_diffuse": "diffuse",
                "u_emission": "emission",
                "u_modelViewMatrix": "modelViewMatrix",
                "u_normalMatrix": "normalMatrix",
                "u_projectionMatrix": "projectionMatrix",
                "u_transparency": "transparency"
            }
        },
        "technique_1": {
            "attributes": {
                "a_normal": "normal",
                "a_position": "position"
            },
            "parameters": {
                "diffuse": {
                    "type": 35666
                },
                "emission": {
                    "type": 35666
                },
                "modelViewMatrix": {
                    "semantic": "MODELVIEW",
                    "type": 35676
                },
                "normal": {
                    "semantic": "NORMAL",
                    "type": 35665
                },
                "normalMatrix": {
                    "semantic": "MODELVIEWINVERSETRANSPOSE",
                    "type": 35675
                },
                "position": {
                    "semantic": "POSITION",
                    "type": 35665
                },
                "projectionMatrix": {
                    "semantic": "PROJECTION",
                    "type": 35676
                },
                "transparency": {
                    "type": 5126
                }
            },
            "program": "program_1",
            "states": {
                "enable": [
                    2929
                ]
            },
            "uniforms": {
                "u_diffuse": "diffuse",
                "u_emission": "emission",
                "u_modelViewMatrix": "modelViewMatrix",
                "u_normalMatrix": "normalMatrix",
                "u_projectionMatrix": "projectionMatrix",
                "u_transparency": "transparency"
            }
        }
    },
    "programs": {
        "program_0": {
            "attributes": [
                "a_normal",
                "a_position",
                "a_texcoord0"
            ],
            "fragmentShader": "shader_1",
            "vertexShader": "shader_0"
        },
        "program_1": {
            "attributes": [
                "a_normal",
                "a_position"
            ],
            "fragmentShader": "shader_3",
            "vertexShader": "shader_2"
        }
    },
    "shaders": {
        "shader_0": {
            "type": 35633,
            "uri": "data:text/plain;base64,"
        },
        "shader_1": {
            "type": 35632,
            "uri": "data:text/plain;base64,"
        },
        "shader_2": {
            "type": 35633,
            "uri": "data:text/plain;base64,"
        },
        "shader_3": {
            "type": 35632,
            "uri": "data:text/plain;base64,"
        }
    },
    "bufferViews": {
        "bufferView_0": {
            "buffer": "buffer_0",
            "byteOffset": 10796,
            "byteLength": 2688,
            "target": 34963
        },
        "bufferView_1": {
            "buffer": "buffer_0",
            "byteOffset": 0,
            "byteLength": 6852,
            "target": 34962
        },
        "bufferView_2": {
            "buffer": "buffer_0",
            "byteOffset": 6852,
            "byteLength": 3944,
            "target": 34962
        }
    },
    "buffers": {
        "buffer_0": {
            "byteLength": 13484,
            "uri": "data:application/octet-stream;base64,"
        }
    }
}
