{
    "asset": {
        "premultipliedAlpha": true,
        "profile": {
            "api": "WebGL",
            "version": "1.0.2"
        },
        "generator": "COLLADA2GLTF",
        "version": "1.0"
    },
    "scenes": {
        "scene_0": {
            "nodes": [
                "node_0"
            ]
        }
    },
    "scene": "scene_0",
    "nodes": {
        "node_0": {
            "children": [
                "node_1"
            ],
            "matrix": [
                1.0,
                0.0,
                0.0,
                0.0,
                0.0,
                0.0,
                -1.0,
                0.0,
                0.0,
                1.0,
                0.0,
                0.0,
                0.0,
                0.0,
                0.0,
                1.0
            ],
            "name": "Z_UP"
        },
        "node_1": {
            "meshes": [
                "geometry0"
            ]
        }
    },
    "meshes": {
        "geometry0": {
            "primitives": [
                {
                    "attributes": {
                        "POSITION": "accessor_1",
                        "TEXCOORD_0": "accessor_2"
                    },
                    "indices": "accessor_0",
                    "mode": 4,
                    "material": "textureAtlas_6598351_3_eff"
                },
                {
                    "attributes": {
                        "POSITION": "accessor_4",
                        "TEXCOORD_0": "accessor_5"
                    },
                    "indices": "accessor_3",
                    "mode": 4,
                    "material": "material_1"
                },
                {
                    "attributes": {
                        "POSITION": "accessor_7",
                        "TEXCOORD_0": "accessor_8"
                    },
                    "indices": "accessor_6",
                    "mode": 4,
                    "material": "material_2"
                },
                {
                    "attributes": {
                        "POSITION": "accessor_10",
                        "TEXCOORD_0": "accessor_11"
                    },
                    "indices": "accessor_9",
                    "mode": 4,
                    "material": "material_3"
                },
                {
                    "attributes": {
                        "POSITION": "accessor_13"
                    },
                    "indices": "accessor_12",
                    "mode": 4,
                    "material": "default_ai_0.2_sh_0.2_tr_0.0_dc_r_0.8_g_0.8_b_0.8_sc_r_1.0_g_1.0_b_1.0_ec_r_0.0_g_0.0_b_0_eff"
                }
            ],
            "name": "geometry0"
        }
    },
    "accessors": {
        "accessor_0": {
            "bufferView": "bufferView_0",
            "byteOffset": 0,
            "componentType": 5123,
            "count": 636,
            "max": [
                293
            ],
            "min": [
                0
            ],
            "type": "SCALAR"
        },
        "accessor_1": {
            "bufferView": "bufferView_1",
            "byteOffset": 0,
            "byteStride": 12,
            "componentType": 5126,
            "count": 294,
            "max": [
                161.86660766601566,
                51.81021881103516,
                49.470001220703128
            ],
            "min": [
                -54.37664794921875,
                -91.0810089111328,
                0.0
            ],
            "type": "VEC3"
        },
        "accessor_2": {
            "bufferView": "bufferView_2",
            "byteOffset": 0,
            "byteStride": 8,
            "componentType": 5126,
            "count": 294,
            "max": [
                0.987290620803833,
                0.9821621775627136
            ],
            "min": [
                0.00005982031143503264,
                0.00011527538299560548
            ],
            "type": "VEC2"
        },
        "accessor_3": {
            "bufferView": "bufferView_0",
            "byteOffset": 1272,
            "componentType": 5123,
            "count": 216,
            "max": [
                91
            ],
            "min": [
                0
            ],
            "type": "SCALAR"
        },
        "accessor_4": {
            "bufferView": "bufferView_1",
            "byteOffset": 3528,
            "byteStride": 12,
            "componentType": 5126,
            "count": 92,
            "max": [
                161.86660766601566,
                79.1692886352539,
                43.77000045776367
            ],
            "min": [
                -88.57335662841797,
                -79.16574096679688,
                0.0
            ],
            "type": "VEC3"
        },
        "accessor_5": {
            "bufferView": "bufferView_2",
            "byteOffset": 2352,
            "byteStride": 8,
            "componentType": 5126,
            "count": 92,
            "max": [
                0.99599689245224,
                0.9912046790122986
            ],
            "min": [
                0.00009199706983054055,
                0.00021135807037353516
            ],
            "type": "VEC2"
        },
        "accessor_6": {
            "bufferView": "bufferView_0",
            "byteOffset": 1704,
            "componentType": 5123,
            "count": 288,
            "max": [
                137
            ],
            "min": [
                0
            ],
            "type": "SCALAR"
        },
        "accessor_7": {
            "bufferView": "bufferView_1",
            "byteOffset": 4632,
            "byteStride": 12,
            "componentType": 5126,
            "count": 138,
            "max": [
                140.86251831054688,
                79.1692886352539,
                49.470001220703128
            ],
            "min": [
                -102.06735229492188,
                -91.080078125,
                0.0
            ],
            "type": "VEC3"
        },
        "accessor_8": {
            "bufferView": "bufferView_2",
            "byteOffset": 3088,
            "byteStride": 8,
            "componentType": 5126,
            "count": 138,
            "max": [
                0.9978837370872498,
                0.9921848177909852
            ],
            "min": [
                0.00003338671740493737,
                0.0000826120376586914
            ],
            "type": "VEC2"
        },
        "accessor_9": {
            "bufferView": "bufferView_0",
            "byteOffset": 2280,
            "componentType": 5123,
            "count": 312,
            "max": [
                155
            ],
            "min": [
                0
            ],
            "type": "SCALAR"
        },
        "accessor_10": {
            "bufferView": "bufferView_1",
            "byteOffset": 6288,
            "byteStride": 12,
            "componentType": 5126,
            "count": 156,
            "max": [
                161.86660766601566,
                67.25596618652344,
                49.470001220703128
            ],
            "min": [
                -102.06735229492188,
                -91.0810089111328,
                0.0
            ],
            "type": "VEC3"
        },
        "accessor_11": {
            "bufferView": "bufferView_2",
            "byteOffset": 4192,
            "byteStride": 8,
            "componentType": 5126,
            "count": 156,
            "max": [
                0.9999279975891112,
                0.9996430277824402
            ],
            "min": [
                0.000019406250430620277,
                0.00027364492416381836
            ],
            "type": "VEC2"
        },
        "accessor_12": {
            "bufferView": "bufferView_0",
            "byteOffset": 2904,
            "componentType": 5123,
            "count": 186,
            "max": [
                63
            ],
            "min": [
                0
            ],
            "type": "SCALAR"
        },
        "accessor_13": {
            "bufferView": "bufferView_1",
            "byteOffset": 8160,
            "byteStride": 12,
            "componentType": 5126,
            "count": 64,
            "max": [
                161.865966796875,
                79.16836547851563,
                0.0
            ],
            "min": [
                -102.06735229492188,
                -91.0810089111328,
                0.0
            ],
            "type": "VEC3"
        }
    },
    "materials": {
        "textureAtlas_6598351_3_eff": {
            "values": {
                "diffuse": "texture_0",
                "emission": [
                    0.0,
                    0.0,
                    0.0,
                    1.0
                ],
                "transparency": 1.0
            },
            "technique": "technique_0",
            "name": "textureAtlas_6598351_3_eff"
        },
        "material_1": {
            "values": {
                "diffuse": "texture_1",
                "emission": [
                    0.0,
                    0.0,
                    0.0,
                    1.0
                ],
                "transparency": 1.0
            },
            "technique": "technique_0",
            "name": "textureAtlas_6598351_2_eff"
        },
        "material_2": {
            "values": {
                "diffuse": "texture_2",
                "emission": [
                    0.0,
                    0.0,
                    0.0,
                    1.0
                ],
                "transparency": 1.0
            },
            "technique": "technique_0",
            "name": "textureAtlas_6598351_1_eff"
        },
        "material_3": {
            "values": {
                "diffuse": "texture_3",
                "emission": [
                    0.0,
                    0.0,
                    0.0,
                    1.0
                ],
                "transparency": 1.0
            },
            "technique": "technique_0",
            "name": "textureAtlas_6598351_0_eff"
        },
        "default_ai_0.2_sh_0.2_tr_0.0_dc_r_0.8_g_0.8_b_0.8_sc_r_1.0_g_1.0_b_1.0_ec_r_0.0_g_0.0_b_0_eff": {
            "values": {
                "diffuse": [
                    0.800000011920929,
                    0.800000011920929,
                    0.800000011920929,
                    1.0
                ],
                "emission": [
                    0.0,
                    0.0,
                    0.0,
                    1.0
                ],
                "transparency": 1.0
            },
            "technique": "technique_1",
            "name": "default_ai_0.2_sh_0.2_tr_0.0_dc_r_0.8_g_0.8_b_0.8_sc_r_1.0_g_1.0_b_1.0_ec_r_0.0_g_0.0_b_0_eff"
        }
    },
    "textures": {
        "texture_0": {
            "format": 6408,
            "internalFormat": 6408,
            "target": 3553,
            "type": 5121,
            "sampler": "sampler_0",
            "source": "textureAtlas_6598351_3_img"
        },
        "texture_1": {
            "format": 6408,
            "internalFormat": 6408,
            "target": 3553,
            "type": 5121,
            "sampler": "sampler_0",
            "source": "textureAtlas_6598351_2_img"
        },
        "texture_2": {
            "format": 6408,
            "internalFormat": 6408,
            "target": 3553,
            "type": 5121,
            "sampler": "sampler_0",
            "source": "textureAtlas_6598351_1_img"
        },
        "texture_3": {
            "format": 6408,
            "internalFormat": 6408,
            "target": 3553,
            "type": 5121,
            "sampler": "sampler_0",
            "source": "textureAtlas_6598351_0_img"
        }
    },
    "images": {
        "textureAtlas_6598351_3_img": {
            "uri": "textureAtlas_6598351_3.jpeg"
        },
        "textureAtlas_6598351_2_img": {
            "uri": "textureAtlas_6598351_2.jpeg"
        },
        "textureAtlas_6598351_1_img": {
            "uri": "textureAtlas_6598351_1.jpeg"
        },
        "textureAtlas_6598351_0_img": {
            "uri": "textureAtlas_6598351_0.jpeg"
        }
    },
    "samplers": {
        "sampler_0": {
            "magFilter": 9729,
            "minFilter": 9986,
            "wrapS": 10497,
            "wrapT": 10497
        }
    },
    "techniques": {
        "technique_0": {
            "attributes": {
                "a_normal": "normal",
                "a_position": "position",
                "a_texcoord0": "texcoord0"
            },
            "parameters": {
                "diffuse": {
                    "type": 35678
                },
                "emission": {
                    "type": 35666
                },
                "modelViewMatrix": {
                    "semantic": "MODELVIEW",
                    "type": 35676
                },
                "normal": {
                    "semantic": "NORMAL",
                    "type": 35665
                },
                "normalMatrix": {
                    "semantic": "MODELVIEWINVERSETRANSPOSE",
                    "type": 35675
                },
                "position": {
                    "semantic": "POSITION",
                    "type": 35665
                },
                "projectionMatrix": {
                    "semantic": "PROJECTION",
                    "type": 35676
                },
                "texcoord0": {
                    "semantic": "TEXCOORD_0",
                    "type": 35665
                },
                "transparency": {
                    "type": 5126
                }
            },
            "program": "program_0",
            "states": {
                "enable": [
                    2929
                ]
            },
            "uniforms": {
                "u_diffuse": "diffuse",
                "u_emission": "emission",
                "u_modelViewMatrix": "modelViewMatrix",
                "u_normalMatrix": "normalMatrix",
                "u_projectionMatrix": "projectionMatrix",
                "u_transparency": "transparency"
            }
        },
        "technique_1": {
            "attributes": {
                "a_normal": "normal",
                "a_position": "position"
            },
            "parameters": {
                "diffuse": {
                    "type": 35666
                },
                "emission": {
                    "type": 35666
                },
                "modelViewMatrix": {
                    "semantic": "MODELVIEW",
                    "type": 35676
                },
                "normal": {
                    "semantic": "NORMAL",
                    "type": 35665
                },
                "normalMatrix": {
                    "semantic": "MODELVIEWINVERSETRANSPOSE",
                    "type": 35675
                },
                "position": {
                    "semantic": "POSITION",
                    "type": 35665
                },
                "projectionMatrix": {
                    "semantic": "PROJECTION",
                    "type": 35676
                },
                "transparency": {
                    "type": 5126
                }
            },
            "program": "program_1",
            "states": {
                "enable": [
                    2929
                ]
            },
            "uniforms": {
                "u_diffuse": "diffuse",
                "u_emission": "emission",
                "u_modelViewMatrix": "modelViewMatrix",
                "u_normalMatrix": "normalMatrix",
                "u_projectionMatrix": "projectionMatrix",
                "u_transparency": "transparency"
            }
        }
    },
    "programs": {
        "program_0": {
            "attributes": [
                "a_normal",
                "a_position",
                "a_texcoord0"
            ],
            "fragmentShader": "shader_1",
            "vertexShader": "shader_0"
        },
        "program_1": {
            "attributes": [
                "a_normal",
                "a_position"
            ],
            "fragmentShader": "shader_3",
            "vertexShader": "shader_2"
        }
    },
    "shaders": {
        "shader_0": {
            "type": 35633,
            "uri": "data:text/plain;base64,"
        },
        "shader_1": {
            "type": 35632,
            "uri": "data:text/plain;base64,"
        },
        "shader_2": {
            "type": 35633,
            "uri": "data:text/plain;base64,"
        },
        "shader_3": {
            "type": 35632,
            "uri": "data:text/plain;base64,"
        }
    },
    "bufferViews": {
        "bufferView_0": {
            "buffer": "buffer_0",
            "byteOffset": 14368,
            "byteLength": 3276,
            "target": 34963
        },
        "bufferView_1": {
            "buffer": "buffer_0",
            "byteOffset": 0,
            "byteLength": 8928,
            "target": 34962
        },
        "bufferView_2": {
            "buffer": "buffer_0",
            "byteOffset": 8928,
            "byteLength": 5440,
            "target": 34962
        }
    },
    "buffers": {
        "buffer_0": {
            "byteLength": 17644,
            "uri": "data:application/octet-stream;base64,"
        }
    }
}
