{
    "asset": {
        "premultipliedAlpha": true,
        "profile": {
            "api": "WebGL",
            "version": "1.0.2"
        },
        "generator": "COLLADA2GLTF",
        "version": "1.0"
    },
    "scenes": {
        "scene_0": {
            "nodes": [
                "node_0"
            ]
        }
    },
    "scene": "scene_0",
    "nodes": {
        "node_0": {
            "children": [
                "node_1"
            ],
            "matrix": [
                1.0,
                0.0,
                0.0,
                0.0,
                0.0,
                0.0,
                -1.0,
                0.0,
                0.0,
                1.0,
                0.0,
                0.0,
                0.0,
                0.0,
                0.0,
                1.0
            ],
            "name": "Z_UP"
        },
        "node_1": {
            "meshes": [
                "geometry0"
            ]
        }
    },
    "meshes": {
        "geometry0": {
            "primitives": [
                {
                    "attributes": {
                        "POSITION": "accessor_1",
                        "TEXCOORD_0": "accessor_2"
                    },
                    "indices": "accessor_0",
                    "mode": 4,
                    "material": "textureAtlas_9771851_3_eff"
                },
                {
                    "attributes": {
                        "POSITION": "accessor_4",
                        "TEXCOORD_0": "accessor_5"
                    },
                    "indices": "accessor_3",
                    "mode": 4,
                    "material": "material_1"
                },
                {
                    "attributes": {
                        "POSITION": "accessor_7",
                        "TEXCOORD_0": "accessor_8"
                    },
                    "indices": "accessor_6",
                    "mode": 4,
                    "material": "material_2"
                },
                {
                    "attributes": {
                        "POSITION": "accessor_10",
                        "TEXCOORD_0": "accessor_11"
                    },
                    "indices": "accessor_9",
                    "mode": 4,
                    "material": "material_3"
                },
                {
                    "attributes": {
                        "POSITION": "accessor_13",
                        "TEXCOORD_0": "accessor_14"
                    },
                    "indices": "accessor_12",
                    "mode": 4,
                    "material": "material_4"
                },
                {
                    "attributes": {
                        "POSITION": "accessor_16",
                        "TEXCOORD_0": "accessor_17"
                    },
                    "indices": "accessor_15",
                    "mode": 4,
                    "material": "material_5"
                },
                {
                    "attributes": {
                        "POSITION": "accessor_19",
                        "TEXCOORD_0": "accessor_20"
                    },
                    "indices": "accessor_18",
                    "mode": 4,
                    "material": "material_6"
                },
                {
                    "attributes": {
                        "POSITION": "accessor_22"
                    },
                    "indices": "accessor_21",
                    "mode": 4,
                    "material": "default_ai_0.2_sh_0.2_tr_0.0_dc_r_0.8_g_0.8_b_0.8_sc_r_1.0_g_1.0_b_1.0_ec_r_0.0_g_0.0_b_0_eff"
                }
            ],
            "name": "geometry0"
        }
    },
    "accessors": {
        "accessor_0": {
            "bufferView": "bufferView_0",
            "byteOffset": 0,
            "componentType": 5123,
            "count": 129,
            "max": [
                60
            ],
            "min": [
                0
            ],
            "type": "SCALAR"
        },
        "accessor_1": {
            "bufferView": "bufferView_1",
            "byteOffset": 0,
            "byteStride": 12,
            "componentType": 5126,
            "count": 61,
            "max": [
                84.09632873535156,
                13.762656211853028,
                36.60000228881836
            ],
            "min": [
                -121.03755950927736,
                -178.21444702148438,
                8.000000093488779e-7
            ],
            "type": "VEC3"
        },
        "accessor_2": {
            "bufferView": "bufferView_2",
            "byteOffset": 0,
            "byteStride": 8,
            "componentType": 5126,
            "count": 61,
            "max": [
                0.999853014945984,
                0.9989909529685974
            ],
            "min": [
                0.00004054101736983285,
                0.00038188695907592773
            ],
            "type": "VEC2"
        },
        "accessor_3": {
            "bufferView": "bufferView_0",
            "byteOffset": 258,
            "componentType": 5123,
            "count": 156,
            "max": [
                65
            ],
            "min": [
                0
            ],
            "type": "SCALAR"
        },
        "accessor_4": {
            "bufferView": "bufferView_1",
            "byteOffset": 732,
            "byteStride": 12,
            "componentType": 5126,
            "count": 66,
            "max": [
                84.72553253173828,
                18.65833854675293,
                36.60000228881836
            ],
            "min": [
                -121.0377197265625,
                -143.1987762451172,
                8.000000093488779e-7
            ],
            "type": "VEC3"
        },
        "accessor_5": {
            "bufferView": "bufferView_2",
            "byteOffset": 488,
            "byteStride": 8,
            "componentType": 5126,
            "count": 66,
            "max": [
                0.9977024793624878,
                0.9950393438339232
            ],
            "min": [
                0.000027832031264551916,
                0.0003151893615722656
            ],
            "type": "VEC2"
        },
        "accessor_6": {
            "bufferView": "bufferView_0",
            "byteOffset": 570,
            "componentType": 5123,
            "count": 693,
            "max": [
                330
            ],
            "min": [
                0
            ],
            "type": "SCALAR"
        },
        "accessor_7": {
            "bufferView": "bufferView_1",
            "byteOffset": 1524,
            "byteStride": 12,
            "componentType": 5126,
            "count": 331,
            "max": [
                116.35952758789064,
                23.85077667236328,
                36.60000228881836
            ],
            "min": [
                -137.22946166992188,
                -183.4165496826172,
                0.0
            ],
            "type": "VEC3"
        },
        "accessor_8": {
            "bufferView": "bufferView_2",
            "byteOffset": 1016,
            "byteStride": 8,
            "componentType": 5126,
            "count": 331,
            "max": [
                0.9909260272979736,
                0.995966911315918
            ],
            "min": [
                0.0000408750020142179,
                0.00003927946090698242
            ],
            "type": "VEC2"
        },
        "accessor_9": {
            "bufferView": "bufferView_0",
            "byteOffset": 1956,
            "componentType": 5123,
            "count": 102,
            "max": [
                45
            ],
            "min": [
                0
            ],
            "type": "SCALAR"
        },
        "accessor_10": {
            "bufferView": "bufferView_1",
            "byteOffset": 5496,
            "byteStride": 12,
            "componentType": 5126,
            "count": 46,
            "max": [
                99.79856872558594,
                -27.801677703857427,
                31.30000114440918
            ],
            "min": [
                -112.9072494506836,
                -168.4054412841797,
                8.000000093488779e-7
            ],
            "type": "VEC3"
        },
        "accessor_11": {
            "bufferView": "bufferView_2",
            "byteOffset": 3664,
            "byteStride": 8,
            "componentType": 5126,
            "count": 46,
            "max": [
                0.999858021736145,
                0.9989352226257324
            ],
            "min": [
                0.00016999999934341758,
                0.00008589029312133789
            ],
            "type": "VEC2"
        },
        "accessor_12": {
            "bufferView": "bufferView_0",
            "byteOffset": 2160,
            "componentType": 5123,
            "count": 429,
            "max": [
                180
            ],
            "min": [
                0
            ],
            "type": "SCALAR"
        },
        "accessor_13": {
            "bufferView": "bufferView_1",
            "byteOffset": 6048,
            "byteStride": 12,
            "componentType": 5126,
            "count": 181,
            "max": [
                116.35952758789064,
                23.85077667236328,
                26.600000381469728
            ],
            "min": [
                -137.22946166992188,
                -183.4165496826172,
                8.000000093488779e-7
            ],
            "type": "VEC3"
        },
        "accessor_14": {
            "bufferView": "bufferView_2",
            "byteOffset": 4032,
            "byteStride": 8,
            "componentType": 5126,
            "count": 181,
            "max": [
                0.9998289942741394,
                0.998870313167572
            ],
            "min": [
                0.00010078808554681018,
                0.00008970499038696289
            ],
            "type": "VEC2"
        },
        "accessor_15": {
            "bufferView": "bufferView_0",
            "byteOffset": 3018,
            "componentType": 5123,
            "count": 231,
            "max": [
                110
            ],
            "min": [
                0
            ],
            "type": "SCALAR"
        },
        "accessor_16": {
            "bufferView": "bufferView_1",
            "byteOffset": 8220,
            "byteStride": 12,
            "componentType": 5126,
            "count": 111,
            "max": [
                97.943115234375,
                18.65833854675293,
                31.30000114440918
            ],
            "min": [
                -123.20545196533205,
                -161.01634216308598,
                0.0
            ],
            "type": "VEC3"
        },
        "accessor_17": {
            "bufferView": "bufferView_2",
            "byteOffset": 5480,
            "byteStride": 8,
            "componentType": 5126,
            "count": 111,
            "max": [
                0.9997860193252564,
                0.99407559633255
            ],
            "min": [
                0.00015928124776110053,
                0.0002180337905883789
            ],
            "type": "VEC2"
        },
        "accessor_18": {
            "bufferView": "bufferView_0",
            "byteOffset": 3480,
            "componentType": 5123,
            "count": 222,
            "max": [
                107
            ],
            "min": [
                0
            ],
            "type": "SCALAR"
        },
        "accessor_19": {
            "bufferView": "bufferView_1",
            "byteOffset": 9552,
            "byteStride": 12,
            "componentType": 5126,
            "count": 108,
            "max": [
                116.35952758789064,
                23.85077667236328,
                36.60000228881836
            ],
            "min": [
                -129.0761871337891,
                -168.4055633544922,
                8.000000093488779e-7
            ],
            "type": "VEC3"
        },
        "accessor_20": {
            "bufferView": "bufferView_2",
            "byteOffset": 6368,
            "byteStride": 8,
            "componentType": 5126,
            "count": 108,
            "max": [
                0.9998921155929564,
                0.9989359378814696
            ],
            "min": [
                0.0000801289061200805,
                0.000006556510925292969
            ],
            "type": "VEC2"
        },
        "accessor_21": {
            "bufferView": "bufferView_0",
            "byteOffset": 3924,
            "componentType": 5123,
            "count": 180,
            "max": [
                61
            ],
            "min": [
                0
            ],
            "type": "SCALAR"
        },
        "accessor_22": {
            "bufferView": "bufferView_1",
            "byteOffset": 10848,
            "byteStride": 12,
            "componentType": 5126,
            "count": 62,
            "max": [
                116.35900115966796,
                23.85000801086426,
                8.000000093488779e-7
            ],
            "min": [
                -137.22946166992188,
                -183.4165496826172,
                0.0
            ],
            "type": "VEC3"
        }
    },
    "materials": {
        "textureAtlas_9771851_3_eff": {
            "values": {
                "diffuse": "texture_0",
                "emission": [
                    0.0,
                    0.0,
                    0.0,
                    1.0
                ],
                "transparency": 1.0
            },
            "technique": "technique_0",
            "name": "textureAtlas_9771851_3_eff"
        },
        "material_1": {
            "values": {
                "diffuse": "texture_1",
                "emission": [
                    0.0,
                    0.0,
                    0.0,
                    1.0
                ],
                "transparency": 1.0
            },
            "technique": "technique_0",
            "name": "textureAtlas_9771851_4_eff"
        },
        "material_2": {
            "values": {
                "diffuse": "texture_2",
                "emission": [
                    0.0,
                    0.0,
                    0.0,
                    1.0
                ],
                "transparency": 1.0
            },
            "technique": "technique_0",
            "name": "textureAtlas_9771851_6_eff"
        },
        "material_3": {
            "values": {
                "diffuse": "texture_3",
                "emission": [
                    0.0,
                    0.0,
                    0.0,
                    1.0
                ],
                "transparency": 1.0
            },
            "technique": "technique_0",
            "name": "textureAtlas_9771851_1_eff"
        },
        "material_4": {
            "values": {
                "diffuse": "texture_4",
                "emission": [
                    0.0,
                    0.0,
                    0.0,
                    1.0
                ],
                "transparency": 1.0
            },
            "technique": "technique_0",
            "name": "textureAtlas_9771851_0_eff"
        },
        "material_5": {
            "values": {
                "diffuse": "texture_5",
                "emission": [
                    0.0,
                    0.0,
                    0.0,
                    1.0
                ],
                "transparency": 1.0
            },
            "technique": "technique_0",
            "name": "textureAtlas_9771851_2_eff"
        },
        "material_6": {
            "values": {
                "diffuse": "texture_6",
                "emission": [
                    0.0,
                    0.0,
                    0.0,
                    1.0
                ],
                "transparency": 1.0
            },
            "technique": "technique_0",
            "name": "textureAtlas_9771851_5_eff"
        },
        "default_ai_0.2_sh_0.2_tr_0.0_dc_r_0.8_g_0.8_b_0.8_sc_r_1.0_g_1.0_b_1.0_ec_r_0.0_g_0.0_b_0_eff": {
            "values": {
                "diffuse": [
                    0.800000011920929,
                    0.800000011920929,
                    0.800000011920929,
                    1.0
                ],
                "emission": [
                    0.0,
                    0.0,
                    0.0,
                    1.0
                ],
                "transparency": 1.0
            },
            "technique": "technique_1",
            "name": "default_ai_0.2_sh_0.2_tr_0.0_dc_r_0.8_g_0.8_b_0.8_sc_r_1.0_g_1.0_b_1.0_ec_r_0.0_g_0.0_b_0_eff"
        }
    },
    "textures": {
        "texture_0": {
            "format": 6408,
            "internalFormat": 6408,
            "target": 3553,
            "type": 5121,
            "sampler": "sampler_0",
            "source": "textureAtlas_9771851_3_img"
        },
        "texture_1": {
            "format": 6408,
            "internalFormat": 6408,
            "target": 3553,
            "type": 5121,
            "sampler": "sampler_0",
            "source": "textureAtlas_9771851_4_img"
        },
        "texture_2": {
            "format": 6408,
            "internalFormat": 6408,
            "target": 3553,
            "type": 5121,
            "sampler": "sampler_0",
            "source": "textureAtlas_9771851_6_img"
        },
        "texture_3": {
            "format": 6408,
            "internalFormat": 6408,
            "target": 3553,
            "type": 5121,
            "sampler": "sampler_0",
            "source": "textureAtlas_9771851_1_img"
        },
        "texture_4": {
            "format": 6408,
            "internalFormat": 6408,
            "target": 3553,
            "type": 5121,
            "sampler": "sampler_0",
            "source": "textureAtlas_9771851_0_img"
        },
        "texture_5": {
            "format": 6408,
            "internalFormat": 6408,
            "target": 3553,
            "type": 5121,
            "sampler": "sampler_0",
            "source": "textureAtlas_9771851_2_img"
        },
        "texture_6": {
            "format": 6408,
            "internalFormat": 6408,
            "target": 3553,
            "type": 5121,
            "sampler": "sampler_0",
            "source": "textureAtlas_9771851_5_img"
        }
    },
    "images": {
        "textureAtlas_9771851_3_img": {
            "uri": "textureAtlas_9771851_3.jpeg"
        },
        "textureAtlas_9771851_4_img": {
            "uri": "textureAtlas_9771851_4.jpeg"
        },
        "textureAtlas_9771851_6_img": {
            "uri": "textureAtlas_9771851_6.jpeg"
        },
        "textureAtlas_9771851_1_img": {
            "uri": "textureAtlas_9771851_1.jpeg"
        },
        "textureAtlas_9771851_0_img": {
            "uri": "textureAtlas_9771851_0.jpeg"
        },
        "textureAtlas_9771851_2_img": {
            "uri": "textureAtlas_9771851_2.jpeg"
        },
        "textureAtlas_9771851_5_img": {
            "uri": "textureAtlas_9771851_5.jpeg"
        }
    },
    "samplers": {
        "sampler_0": {
            "magFilter": 9729,
            "minFilter": 9986,
            "wrapS": 10497,
            "wrapT": 10497
        }
    },
    "techniques": {
        "technique_0": {
            "attributes": {
                "a_normal": "normal",
                "a_position": "position",
                "a_texcoord0": "texcoord0"
            },
            "parameters": {
                "diffuse": {
                    "type": 35678
                },
                "emission": {
                    "type": 35666
                },
                "modelViewMatrix": {
                    "semantic": "MODELVIEW",
                    "type": 35676
                },
                "normal": {
                    "semantic": "NORMAL",
                    "type": 35665
                },
                "normalMatrix": {
                    "semantic": "MODELVIEWINVERSETRANSPOSE",
                    "type": 35675
                },
                "position": {
                    "semantic": "POSITION",
                    "type": 35665
                },
                "projectionMatrix": {
                    "semantic": "PROJECTION",
                    "type": 35676
                },
                "texcoord0": {
                    "semantic": "TEXCOORD_0",
                    "type": 35665
                },
                "transparency": {
                    "type": 5126
                }
            },
            "program": "program_0",
            "states": {
                "enable": [
                    2929
                ]
            },
            "uniforms": {
                "u_diffuse": "diffuse",
                "u_emission": "emission",
                "u_modelViewMatrix": "modelViewMatrix",
                "u_normalMatrix": "normalMatrix",
                "u_projectionMatrix": "projectionMatrix",
                "u_transparency": "transparency"
            }
        },
        "technique_1": {
            "attributes": {
                "a_normal": "normal",
                "a_position": "position"
            },
            "parameters": {
                "diffuse": {
                    "type": 35666
                },
                "emission": {
                    "type": 35666
                },
                "modelViewMatrix": {
                    "semantic": "MODELVIEW",
                    "type": 35676
                },
                "normal": {
                    "semantic": "NORMAL",
                    "type": 35665
                },
                "normalMatrix": {
                    "semantic": "MODELVIEWINVERSETRANSPOSE",
                    "type": 35675
                },
                "position": {
                    "semantic": "POSITION",
                    "type": 35665
                },
                "projectionMatrix": {
                    "semantic": "PROJECTION",
                    "type": 35676
                },
                "transparency": {
                    "type": 5126
                }
            },
            "program": "program_1",
            "states": {
                "enable": [
                    2929
                ]
            },
            "uniforms": {
                "u_diffuse": "diffuse",
                "u_emission": "emission",
                "u_modelViewMatrix": "modelViewMatrix",
                "u_normalMatrix": "normalMatrix",
                "u_projectionMatrix": "projectionMatrix",
                "u_transparency": "transparency"
            }
        }
    },
    "programs": {
        "program_0": {
            "attributes": [
                "a_normal",
                "a_position",
                "a_texcoord0"
            ],
            "fragmentShader": "shader_1",
            "vertexShader": "shader_0"
        },
        "program_1": {
            "attributes": [
                "a_normal",
                "a_position"
            ],
            "fragmentShader": "shader_3",
            "vertexShader": "shader_2"
        }
    },
    "shaders": {
        "shader_0": {
            "type": 35633,
            "uri": "data:text/plain;base64,"
        },
        "shader_1": {
            "type": 35632,
            "uri": "data:text/plain;base64,"
        },
        "shader_2": {
            "type": 35633,
            "uri": "data:text/plain;base64,"
        },
        "shader_3": {
            "type": 35632,
            "uri": "data:text/plain;base64,"
        }
    },
    "bufferViews": {
        "bufferView_0": {
            "buffer": "buffer_0",
            "byteOffset": 18824,
            "byteLength": 4284,
            "target": 34963
        },
        "bufferView_1": {
            "buffer": "buffer_0",
            "byteOffset": 0,
            "byteLength": 11592,
            "target": 34962
        },
        "bufferView_2": {
            "buffer": "buffer_0",
            "byteOffset": 11592,
            "byteLength": 7232,
            "target": 34962
        }
    },
    "buffers": {
        "buffer_0": {
            "byteLength": 23108,
            "uri": "data:application/octet-stream;base64,"
        }
    }
}
